<svg xmlns="http://www.w3.org/2000/svg" viewBox="0 0 194.84 107.23">
    <defs><style>.cls-1{fill:#ec1d25;}.cls-2{fill:#eaebef;}</style></defs>
    <rect class="cls-1" x="30.4" width="133.57" height="64.64" rx="7.81" ry="7.81"/>
    <path class="cls-2" d="M76.17,26.06a6.26,6.26,0,0,0,0,12.52h9v4.17H75a10.44,10.44,0,0,1,0-20.88H91.89c3.69,0,6.67-2.36,6.66-5.29V9.35H73.74a22.85,22.85,0,0,0-23.1,22.78,23.16,23.16,0,0,0,23.1,23.16H98.55V31.35c0-2.93-3-5.29-6.66-5.29Z" transform="translate(-2.74)"/>
    <path class="cls-2" d="M137.89,38.09l11.32,17.2H133.64l-11-16.7h-5.33v16.7H103.39V31.35c0-2.93,3-5.29,6.66-5.29H132a2.09,2.09,0,0,0,0-4.18H110.05c-3.69,0-6.68-2.36-6.66-5.29V9.35h29.9a14.75,14.75,0,0,1,4.6,28.74Z" transform="translate(-2.74)"/>
    <path class="cls-1" d="M23.78,107l0-13.87-6.81,11.43H14.53L7.76,93.39V107h-5V83.84H7.17l8.65,14.37,8.52-14.37h4.4L28.8,107Z" transform="translate(-2.74)"/>
    <path class="cls-1" d="M37.34,106.06a8.71,8.71,0,0,1-3.49-3.26,9.54,9.54,0,0,1,0-9.44,8.78,8.78,0,0,1,3.49-3.26,11.4,11.4,0,0,1,10.06,0,8.77,8.77,0,0,1,3.46,3.26,9.47,9.47,0,0,1,0,9.44,8.7,8.7,0,0,1-3.46,3.26,11.4,11.4,0,0,1-10.06,0Zm8.29-4.4a5.68,5.68,0,0,0,0-7.16,4.64,4.64,0,0,0-6.52,0,5.61,5.61,0,0,0,0,7.16,4.64,4.64,0,0,0,6.52,0Z" transform="translate(-2.74)"/>
    <path class="cls-1" d="M71.69,90.91q2,2,2,5.88V107H68.57V97.59a4.62,4.62,0,0,0-.93-3.16,3.39,3.39,0,0,0-2.67-1,4.09,4.09,0,0,0-3.11,1.21,5,5,0,0,0-1.15,3.58V107H55.55V89.19h4.93v2.09A6.85,6.85,0,0,1,63,89.54a8.77,8.77,0,0,1,3.33-.61A7.33,7.33,0,0,1,71.69,90.91Z" transform="translate(-2.74)"/>
    <path class="cls-1" d="M89.84,106.11A5.46,5.46,0,0,1,88,107a9.78,9.78,0,0,1-2.33.28,6.9,6.9,0,0,1-4.9-1.62A6.18,6.18,0,0,1,79,100.85v-7.3H76.26v-4H79V85.26h5.16v4.33h4.42v4H84.16v7.24a2.38,2.38,0,0,0,.58,1.73,2.12,2.12,0,0,0,1.63.61,3.32,3.32,0,0,0,2.08-.66Z" transform="translate(-2.74)"/>
    <path class="cls-1" d="M108.88,90.91q2,2,2,5.88V107h-5.15V97.59a4.62,4.62,0,0,0-.93-3.16,3.39,3.39,0,0,0-2.67-1,4.09,4.09,0,0,0-3.11,1.21,5,5,0,0,0-1.15,3.58V107H92.74V82.46H97.9V91a6.76,6.76,0,0,1,2.47-1.56,8.83,8.83,0,0,1,3.17-.55A7.33,7.33,0,0,1,108.88,90.91Z" transform="translate(-2.74)"/>
    <path class="cls-1" d="M140.62,84.87a7.84,7.84,0,0,1,3.48,2.91,8.66,8.66,0,0,1,0,8.9,7.75,7.75,0,0,1-3.48,2.9,13.06,13.06,0,0,1-5.33,1h-4.66V107h-5.35V83.84h10A12.89,12.89,0,0,1,140.62,84.87Zm-2,10.32a3.62,3.62,0,0,0,1.26-3,3.66,3.66,0,0,0-1.26-3,5.62,5.62,0,0,0-3.66-1h-4.36v8H135A5.62,5.62,0,0,0,138.65,95.19Z" transform="translate(-2.74)"/>
    <path class="cls-1" d="M149.09,82.46h5.15V107h-5.15Z" transform="translate(-2.74)"/>
    <path class="cls-1" d="M172.54,90.9c1.48,1.31,2.21,3.28,2.21,5.93V107h-4.82v-2.21q-1.45,2.48-5.41,2.48a8.5,8.5,0,0,1-3.56-.69,5.39,5.39,0,0,1-2.29-1.92,5,5,0,0,1-.79-2.77,4.62,4.62,0,0,1,1.86-3.9q1.88-1.42,5.77-1.42h4.09a3.3,3.3,0,0,0-1-2.6,4.56,4.56,0,0,0-3.07-.9,9,9,0,0,0-2.8.44,7.38,7.38,0,0,0-2.32,1.21l-1.85-3.6A11.39,11.39,0,0,1,162,89.49a15.84,15.84,0,0,1,4.18-.56A9.24,9.24,0,0,1,172.54,90.9Zm-4.39,12.25a3.34,3.34,0,0,0,1.45-1.8V99.53h-3.53c-2.12,0-3.17.7-3.17,2.08a1.86,1.86,0,0,0,.77,1.57,3.47,3.47,0,0,0,2.13.58A4.48,4.48,0,0,0,168.15,103.15Z" transform="translate(-2.74)"/>
    <path class="cls-1" d="M195.55,90.91q2,2,2,5.88V107h-5.16V97.59a4.62,4.62,0,0,0-.92-3.16,3.41,3.41,0,0,0-2.68-1,4.08,4.08,0,0,0-3.1,1.21,5,5,0,0,0-1.16,3.58V107h-5.15V89.19h4.92v2.09a6.81,6.81,0,0,1,2.55-1.74,8.77,8.77,0,0,1,3.33-.61A7.34,7.34,0,0,1,195.55,90.91Z" transform="translate(-2.74)"/>
</svg>