<?xml version="1.0" standalone="no"?>
<!DOCTYPE svg PUBLIC "-//W3C//DTD SVG 20010904//EN"
 "http://www.w3.org/TR/2001/REC-SVG-20010904/DTD/svg10.dtd">
<svg version="1.0" xmlns="http://www.w3.org/2000/svg"
 width="1200.000000pt" height="1200.000000pt" viewBox="0 0 1200.000000 1200.000000"
 preserveAspectRatio="xMidYMid meet">
<metadata>
Created by potrace 1.11, written by Peter Selinger 2001-2013
</metadata>
<g transform="translate(0.000000,1200.000000) scale(0.100000,-0.100000)"
fill="#000000" stroke="none">
<path d="M5645 11989 c-1993 -118 -3789 -1215 -4812 -2939 -451 -761 -720
-1597 -810 -2515 -24 -252 -24 -818 0 -1070 111 -1136 501 -2156 1166 -3050
591 -793 1384 -1439 2277 -1854 1605 -747 3463 -747 5068 0 1190 553 2173
1494 2789 2669 439 836 677 1811 677 2770 0 1292 -417 2547 -1189 3585 -473
635 -1071 1172 -1761 1582 -1015 603 -2216 893 -3405 822z m225 -4161 c0 -189
-5 -370 -10 -403 -30 -182 -179 -331 -405 -406 l-70 -24 -945 -5 c-928 -6
-946 -6 -1022 -27 -305 -86 -530 -273 -658 -547 -67 -142 -84 -227 -84 -411 0
-132 4 -174 22 -237 104 -376 370 -633 752 -726 54 -13 159 -16 613 -19 l547
-4 -2 198 -3 198 -490 5 c-364 4 -500 9 -530 19 -152 50 -288 167 -354 304
-47 98 -61 160 -61 269 0 267 188 505 450 569 44 11 221 14 885 14 934 0 904
2 1065 -76 63 -30 100 -57 155 -112 81 -82 118 -149 135 -248 7 -44 10 -408 8
-1189 l-3 -1125 -1265 0 c-1167 0 -1274 1 -1378 18 -483 77 -898 285 -1231
618 -360 360 -582 831 -632 1344 -14 144 -6 400 16 535 116 704 557 1290 1205
1599 200 96 487 176 711 200 46 4 645 9 1332 10 l1247 1 0 -342z m3572 310
c539 -134 936 -536 1053 -1068 26 -118 31 -385 10 -512 -59 -355 -254 -675
-545 -894 -87 -66 -265 -163 -339 -185 -23 -7 -41 -16 -41 -21 0 -5 35 -61 78
-126 59 -87 602 -910 970 -1469 l14 -23 -734 0 -735 0 -508 773 c-280 424
-515 780 -523 790 -14 16 -37 17 -261 15 l-246 -3 -3 -787 -2 -788 -655 0
-655 0 2 1178 3 1177 32 68 c75 158 195 250 413 315 49 15 174 17 1186 22
l1130 5 36 24 c105 73 118 222 26 308 -59 55 -6 53 -1188 53 -959 0 -1100 2
-1168 16 -229 47 -402 189 -456 373 -13 46 -16 116 -16 423 l0 369 1508 -4
1507 -3 107 -26z"/>
</g>
</svg>
